<svg xmlns="http://www.w3.org/2000/svg" xmlns:xlink="http://www.w3.org/1999/xlink" version="1.1" x="0px" y="0px" viewBox="0 0 100 125" enable-background="new 0 0 100 100" xml:space="preserve"><g><path d="M74.087,64.792c-4.458,0-6.788-1.508-8.844-2.838c-1.955-1.265-3.643-2.357-7.214-2.357c-3.574,0-5.263,1.092-7.218,2.357   c-2.056,1.33-4.387,2.837-8.843,2.837c-4.456,0-6.787-1.507-8.842-2.837c-1.865-1.206-3.476-2.248-6.708-2.348   c-0.828-0.026-1.479-0.718-1.453-1.546c0.026-0.828,0.728-1.482,1.546-1.453c4.067,0.126,6.286,1.562,8.244,2.828   c1.955,1.265,3.643,2.356,7.213,2.356c3.571,0,5.259-1.092,7.214-2.356c2.057-1.331,4.388-2.838,8.848-2.838   c4.458,0,6.788,1.508,8.844,2.838c1.955,1.265,3.643,2.357,7.214,2.357c0.829,0,1.5,0.671,1.5,1.5S74.916,64.792,74.087,64.792z"/></g><g><path d="M51.203,81.275c-2.819,0-5.113-2.294-5.113-5.113s2.294-5.113,5.113-5.113s5.113,2.294,5.113,5.113   S54.022,81.275,51.203,81.275z M51.203,74.048c-1.165,0-2.113,0.948-2.113,2.113s0.948,2.113,2.113,2.113s2.113-0.948,2.113-2.113   S52.368,74.048,51.203,74.048z"/></g><g><path d="M39.159,76.457c-2.82,0-5.114-2.294-5.114-5.113s2.294-5.113,5.114-5.113c2.819,0,5.113,2.294,5.113,5.113   S41.978,76.457,39.159,76.457z M39.159,69.23c-1.166,0-2.114,0.948-2.114,2.113s0.948,2.113,2.114,2.113   c1.165,0,2.113-0.948,2.113-2.113S40.324,69.23,39.159,69.23z"/></g><g><path d="M60.839,74.048c-2.82,0-5.114-2.294-5.114-5.114c0-2.819,2.294-5.113,5.114-5.113c2.819,0,5.113,2.293,5.113,5.113   C65.953,71.754,63.659,74.048,60.839,74.048z M60.839,66.821c-1.166,0-2.114,0.948-2.114,2.113c0,1.166,0.948,2.114,2.114,2.114   c1.165,0,2.113-0.948,2.113-2.114C62.953,67.769,62.004,66.821,60.839,66.821z"/></g><g><path d="M63.39,88.501H36.611c-0.287,0-0.568-0.083-0.81-0.237c-7.604-4.875-12.144-13.17-12.144-22.189   c0-11.014,6.793-20.783,17.016-24.643V21.681h-0.311c-0.829,0-1.5-0.671-1.5-1.5v-6.075c0-0.829,0.671-1.5,1.5-1.5h19.269   c0.829,0,1.5,0.671,1.5,1.5v6.075c0,0.829-0.671,1.5-1.5,1.5h-0.311V41.43c10.225,3.862,17.02,13.631,17.02,24.645   c0,9.019-4.539,17.314-12.143,22.189C63.958,88.419,63.677,88.501,63.39,88.501z M37.058,85.501h25.885   c6.52-4.349,10.399-11.579,10.399-19.426c0-10.084-6.427-18.99-15.992-22.16c-0.614-0.204-1.028-0.777-1.028-1.424V20.181   c0-0.829,0.671-1.5,1.5-1.5h0.311v-3.075H41.864v3.075h0.311c0.829,0,1.5,0.671,1.5,1.5V42.49c0,0.646-0.414,1.22-1.028,1.424   c-9.563,3.172-15.988,12.078-15.988,22.162C26.658,73.923,30.538,81.152,37.058,85.501z"/></g><text x="0" y="115" fill="#000000" font-size="5px" font-weight="bold" font-family="'Helvetica Neue', Helvetica, Arial-Unicode, Arial, Sans-serif">Created by Alexander  Bogomolov</text><text x="0" y="120" fill="#000000" font-size="5px" font-weight="bold" font-family="'Helvetica Neue', Helvetica, Arial-Unicode, Arial, Sans-serif">from the Noun Project</text></svg>