<svg xmlns="http://www.w3.org/2000/svg" xmlns:xlink="http://www.w3.org/1999/xlink" version="1.1" x="0px" y="0px" viewBox="0 0 100 125" enable-background="new 0 0 100 100" xml:space="preserve"><g><ellipse cx="33.5" cy="67.2" rx="26.2" ry="6.6"/><path d="M59.7,74.2V70c0,0-1.6,5.5-26.2,5.5C8.9,75.5,7.3,70,7.3,70v4.1c0,0-2.3,1.6-2.3,3.8c0,2.2,2.8,7.4,28,7.7l0,0   c0.2,0,0.3,0,0.4,0c0.2,0,0.3,0,0.4,0l0,0c25.2-0.3,28-5.5,28-7.7C61.8,76,60.2,74.6,59.7,74.2z"/><path d="M54.5,29.7c0.9-0.7,1.5-1.7,1.7-2.8l0,0c0.2-1.1-0.3-2.2-1.2-2.8L39,14.7c-1-0.6-2.2-0.5-3,0.2c-0.9,0.7-1.5,1.7-1.7,2.8   L34,19.5l19.1,11.4L54.5,29.7z"/><path d="M21.6,43.9l15.9,9.5c1,0.6,2.2,0.5,3-0.2v0c0.9-0.7,1.5-1.7,1.7-2.8l0.3-1.8L23.5,37.1L22,38.3c-0.9,0.7-1.5,1.7-1.7,2.8   C20.2,42.2,20.7,43.3,21.6,43.9z"/><path d="M66.4,46.4c0-0.1,0.1-0.2,0.1-0.3c0,0,0,0,0,0c0.3-1-0.1-2.1-1.1-2.6c-1.1-0.7-2.6-0.3-3.2,0.8l-3.6,6   c-0.7,1.1-0.3,2.6,0.8,3.2c0.9,0.5,2.1,0.4,2.8-0.3l0,0c0,0,0,0,0,0c0.1-0.1,0.1-0.1,0.2-0.2c0.1-0.1,0.2-0.2,0.2-0.3l3.6-6   C66.3,46.6,66.4,46.5,66.4,46.4z"/><path d="M46,42.7l10.9,7c0.1-0.1,0.1-0.3,0.2-0.4l3.6-6c0.1-0.1,0.2-0.2,0.2-0.4l-11.3-6.3l2.6-4.4L33.1,21l-8.8,14.7l19.1,11.4   L46,42.7z"/><path d="M92.3,60.3L68.2,47c-0.1,0.2-0.2,0.4-0.3,0.6l-3.6,6c-0.1,0.2-0.3,0.4-0.4,0.6l23.2,14.9c2.4,1.6,5.7,0.8,7.2-1.7   C95.8,65,94.9,61.7,92.3,60.3z"/></g><text x="0" y="115" fill="#000000" font-size="5px" font-weight="bold" font-family="'Helvetica Neue', Helvetica, Arial-Unicode, Arial, Sans-serif">Created by parkjisun</text><text x="0" y="120" fill="#000000" font-size="5px" font-weight="bold" font-family="'Helvetica Neue', Helvetica, Arial-Unicode, Arial, Sans-serif">from the Noun Project</text></svg>