<svg xmlns="http://www.w3.org/2000/svg" xmlns:xlink="http://www.w3.org/1999/xlink" version="1.1" x="0px" y="0px" viewBox="0 0 1000 1250" enable-background="new 0 0 1000 1000" xml:space="preserve"><metadata><?xpacket begin="&#65279;" id="W5M0MpCehiHzreSzNTczkc9d"?><x:xmpmeta xmlns:x="adobe:ns:meta/" x:xmptk="Adobe XMP Core 5.5-c014 79.151739, 2013/04/03-12:12:15        "/><?xpacket end="w"?></metadata><circle cx="514" cy="94.5" r="70.6"/><path fill="#000000" d="M477.7,278c-0.6-2.2-1.7-4.2-3.2-5.7c-2.6-2.8-6.3-4.5-10.3-4.5c-1.2,0-2.4,0.2-3.7,0.5  c-4.8,1.3-8.3,5-9.7,9.4c-4.7-0.8-9.4-1.3-14.3-1.3c-1.7,0-3.4,0.1-5.1,0.2c-0.9,0.1-1.8,0.1-2.7,0.2c-4.4,0.4-8.8,1.2-13.2,2.4  c-38.2,10.4-62.5,46.9-58.9,85.1h5.1c-3.6-35.9,19.2-70.4,55.1-80.2c4-1.1,7.9-1.8,11.9-2.2c2.6-0.3,5.2-0.4,7.8-0.4  c0.1,0,0.3,0,0.4,0c4.5,0,8.9,0.4,13.2,1.2c0.1,0.9,0.2,1.8,0.5,2.7c0.9,3.2,2.9,5.9,5.4,7.7c2.3,1.6,5.1,2.6,8,2.6  c1.2,0,2.4-0.2,3.7-0.5C475.3,293.1,479.7,285.5,477.7,278z"/><path fill="#000000" d="M609.5,302.4c-3.5,0-7,0.2-10.5,0.7c-1.1,0.1-2.1,0.3-3.2,0.5c-11,1.9-21.1,6-29.9,11.7  c-2.6-3.1-6.5-5.1-10.7-5.1c-0.6,0-1.2,0-1.8,0.1c-7.6,1-13,8-12,15.6c0.9,7,6.9,12.1,13.8,12.1c0.6,0,1.2,0,1.8-0.1  c7.6-1,13-8,12-15.6c-0.1-0.9-0.3-1.8-0.6-2.6c8.1-5.3,17.4-9.1,27.4-11c1.3-0.2,2.6-0.4,3.9-0.6c3.3-0.4,6.6-0.6,9.9-0.6  c34.3,0,64.5,23.5,72.9,56.8h5.2C679.1,328.1,646.5,302.4,609.5,302.4z"/><path d="M698.1,374.2h-23.6h-78.7h-167h-55.3h-8.4h-11.9h-5.1h-28.6l59,193.6l0,0.5l34.4,346.4c34-5.9,68.5-8.9,103-8.9  c33.6,0,67.3,2.8,100.4,8.4l33.6-340.7l0.1-0.5l60.5-198.8H698.1z"/><path d="M625.1,926c-1.6-0.3-3.3-0.6-4.9-0.9c-1.6-0.3-3.3-0.6-4.9-0.9c-32.8-5.6-66.1-8.4-99.4-8.4c-34.2,0-68.4,3-102,8.9  c-1.6,0.3-3.3,0.6-4.9,0.9c-1.6,0.3-3.3,0.6-4.9,0.9c-7.2,1.4-14.3,2.9-21.5,4.5c1.2,4.2,2.5,8.4,3.8,12.4  c3.4,10.4,6.8,21.1,7.6,32.2h243.8c0.8-11.2,4.3-21.8,7.6-32.2c1.3-4.1,2.7-8.3,3.8-12.4C641.2,929.2,633.2,927.5,625.1,926z"/><path d="M677.5,68.8c-5,26.9-10,53.9-15,80.8l-78.2,68.9c-31.2-51.7-111.1-52.2-143.2-1.4l-76.6-67.5c-5-26.9-10-53.9-15-80.8  c-12.8-21.9-46-15.8-50.1,9.3c6.1,33,12.2,65.9,18.3,98.9l0.6-0.1l103,90.8c2.5-0.4,4.9-0.7,7.4-1c2.6-0.2,5.2-0.4,7.8-0.4  c2.9,0,5.9,0.1,8.8,0.4c3.1-3.9,7.4-6.8,12.4-8.2c2.1-0.6,4.2-0.8,6.3-0.8c6.5,0,12.5,2.6,16.9,7c2.9,2.9,5.1,6.5,6.2,10.6  c3.5,12.7-4.1,25.9-16.8,29.4c-2.1,0.6-4.2,0.8-6.3,0.8c-9.4,0-17.9-5.6-21.7-13.9c-1.9-0.2-3.9-0.3-5.8-0.3c-2.6,0-5.2,0.2-7.8,0.5  c0,24.1,0,48.2,0,72.3h167c0-15.1,0-30.2,0-45.3c-5.9,1.2-11.4,3.3-16.7,6.1c-0.2,5-1.9,9.7-4.9,13.8c-3.9,5.1-9.5,8.3-15.9,9.2  c-1,0.1-2.1,0.2-3.1,0.2c-12,0-22.1-8.9-23.7-20.8c-1.7-13.1,7.5-25.1,20.6-26.8c1-0.1,2.1-0.2,3.1-0.2c4.1,0,8,1,11.5,3  c9.1-4.9,18.8-8.2,29.1-9.7c0-5.7,0-11.4,0-17.1l112.9-99.5l0.6,0.1c6.1-33,12.2-65.9,18.3-98.9C723.5,53.1,690.3,46.9,677.5,68.8z"/><text x="0" y="1015" fill="#000000" font-size="5px" font-weight="bold" font-family="'Helvetica Neue', Helvetica, Arial-Unicode, Arial, Sans-serif">Created by Les vieux garçons</text><text x="0" y="1020" fill="#000000" font-size="5px" font-weight="bold" font-family="'Helvetica Neue', Helvetica, Arial-Unicode, Arial, Sans-serif">from the Noun Project</text></svg>