<svg xmlns="http://www.w3.org/2000/svg" xmlns:xlink="http://www.w3.org/1999/xlink" version="1.1" x="0px" y="0px" viewBox="0 0 100 110.79625" enable-background="new 0 0 100 88.637" xml:space="preserve"><path fill="#000000" d="M97.728,0H2.273C1.017,0,0,1.017,0,2.273v68.208c0,0.604,0.24,1.183,0.668,1.609  c0.426,0.426,1.003,0.663,1.605,0.663c0.002,0,0.004,0,0.006,0l8.075-0.024c-0.608,1.969-1.219,4.006-1.793,6.018  c-0.459,1.602-0.267,3.289,0.546,4.749c0.81,1.461,2.144,2.517,3.751,2.975c0.521,0.155,1.112,0.239,1.711,0.239  c1.378,0,2.679-0.462,3.735-1.249l-0.091,0.501c-0.222,1.234,0.599,2.417,1.835,2.639c0.135,0.024,0.271,0.036,0.404,0.036  c1.079,0,2.038-0.771,2.235-1.871L26.8,63.896c0.209-1.159-0.501-2.284-1.638-2.595c-1.143-0.304-2.319,0.3-2.73,1.4l-1.782,4.787  c-1.385,3.522-3.101,8.74-4.443,13.441c-0.213,0.746-0.895,1.234-1.638,1.234c-0.153,0-0.311-0.019-0.468-0.067  c-0.905-0.257-1.429-1.198-1.169-2.104c0.732-2.57,3.434-11.736,5.349-16.5c0.943-2.339,1.882-4.248,2.672-5.042  c2.694-2.694,5.447-2.771,5.75-2.771h11.364c0.004,0,0.007,0,0.011,0h3.389c0,0,0.006,0,0.009,0h6.818c0.004,0,0.006,0,0.011,0  h3.736l10.853-13.023c0.338-0.404,0.821-0.613,1.308-0.613c0.386,0,0.774,0.129,1.094,0.396c0.724,0.604,0.821,1.678,0.218,2.401  L54.148,58.479c-0.324,0.391-0.804,0.612-1.31,0.612c0,0-0.225,0-0.57,0c-0.335,0-0.788,0-1.274,0h-5.615  c-0.674,0-1.316,0.3-1.747,0.819c-0.433,0.52-0.61,1.203-0.488,1.866l4.617,25c0.202,1.095,1.158,1.86,2.232,1.86  c0.138,0,0.275-0.012,0.415-0.038c1.234-0.229,2.051-1.414,1.822-2.647l-2.437-13.197h47.934c1.256,0,2.272-1.017,2.272-2.272V2.273  C100,1.017,98.983,0,97.728,0z M95.454,68.209H48.953l-0.844-4.572h4.16h0.57c1.859,0,3.608-0.817,4.801-2.246l11.363-13.637  c1.07-1.282,1.576-2.903,1.425-4.567c-0.15-1.66-0.938-3.165-2.222-4.235C67.079,38.015,65.658,37.5,64.2,37.5  c-1.86,0-3.611,0.821-4.801,2.25l-9.488,11.386h-0.868h-0.004h-0.746h-6.818h-0.739h-0.006h-1.914h-0.004h-0.746H26.702  c-2.35,0-5.939,1.078-8.964,4.102c-0.521,0.523-1.7,1.7-3.697,6.627c-0.573,1.409-1.381,3.702-2.266,6.398  c-0.138-0.024-0.264-0.082-0.411-0.082c-0.002,0-0.004,0-0.007,0l-6.812,0.021V4.545h90.909V68.209z"/><path fill="#000000" d="M39.331,17.951h29.623c1.256,0,2.272-1.017,2.272-2.273c0-1.256-1.017-2.272-2.272-2.272H39.331  c-1.256,0-2.273,1.017-2.273,2.272C37.058,16.935,38.075,17.951,39.331,17.951z"/><path fill="#000000" d="M51.362,27.197c0,1.256,1.017,2.273,2.273,2.273h36.203c1.257,0,2.273-1.017,2.273-2.273  c0-1.256-1.017-2.272-2.273-2.272H53.636C52.379,24.925,51.362,25.941,51.362,27.197z"/><path fill="#000000" d="M34.655,48.864c5.953,0,10.795-4.843,10.795-10.796s-4.843-10.795-10.795-10.795  s-10.795,4.843-10.795,10.795S28.702,48.864,34.655,48.864z M34.655,31.818c3.447,0,6.25,2.803,6.25,6.25s-2.803,6.25-6.25,6.25  s-6.25-2.803-6.25-6.25S31.208,31.818,34.655,31.818z"/><text x="0" y="103.637" fill="#000000" font-size="5px" font-weight="bold" font-family="'Helvetica Neue', Helvetica, Arial-Unicode, Arial, Sans-serif">Created by Jaclyne Ooi</text><text x="0" y="108.637" fill="#000000" font-size="5px" font-weight="bold" font-family="'Helvetica Neue', Helvetica, Arial-Unicode, Arial, Sans-serif">from the Noun Project</text></svg>