<?xml version="1.0" encoding="utf-8"?>
<!-- Generator: Adobe Illustrator 16.0.4, SVG Export Plug-In . SVG Version: 6.00 Build 0)  -->
<!DOCTYPE svg PUBLIC "-//W3C//DTD SVG 1.1//EN" "http://www.w3.org/Graphics/SVG/1.1/DTD/svg11.dtd">
<svg version="1.1" id="Layer_1" xmlns="http://www.w3.org/2000/svg" xmlns:xlink="http://www.w3.org/1999/xlink" x="0px" y="0px"
	 width="403.48px" height="497.975px" viewBox="222.545 -11.754 403.48 497.975"
	 enable-background="new 222.545 -11.754 403.48 497.975" xml:space="preserve">
<g>
	<polygon points="574.725,471.263 267.164,471.263 267.164,86.315 287.007,86.315 287.007,451.421 554.883,451.421 554.883,86.315 
		574.725,86.315 	"/>
	<polygon points="604.49,96.237 503.291,96.237 503.291,24.803 339.59,24.803 339.59,96.237 237.4,96.237 237.4,76.394 
		319.747,76.394 319.747,4.961 523.134,4.961 523.134,76.394 604.49,76.394 	"/>
	<g>
		<rect x="505.276" y="146.836" width="19.843" height="50.599"/>
		<rect x="316.771" y="146.836" width="19.843" height="50.599"/>
		<rect x="379.276" y="146.836" width="19.842" height="50.599"/>
		<rect x="442.772" y="146.836" width="19.843" height="50.599"/>
	</g>
	<g>
		<rect x="505.276" y="243.073" width="19.843" height="50.599"/>
		<rect x="316.771" y="243.073" width="19.843" height="50.599"/>
		<rect x="379.276" y="243.073" width="19.842" height="50.599"/>
		<rect x="442.772" y="243.073" width="19.843" height="50.599"/>
	</g>
	<g>
		<rect x="505.276" y="339.31" width="19.843" height="50.599"/>
		<rect x="316.771" y="339.31" width="19.843" height="50.599"/>
	</g>
	<path d="M480.473,471.263H361.417V370.066h119.056V471.263z M381.259,451.421h79.371v-61.512h-79.371V451.421z"/>
	<g>
		<rect x="391.181" y="65.481" width="59.527" height="19.843"/>
		<rect x="411.024" y="45.638" width="19.842" height="60.52"/>
	</g>
</g>
</svg>
