<?xml version="1.0" encoding="utf-8"?><!DOCTYPE svg PUBLIC "-//W3C//DTD SVG 1.0//EN" "http://www.w3.org/TR/2001/REC-SVG-20010904/DTD/svg10.dtd"><svg version="1.0" xmlns="http://www.w3.org/2000/svg" xmlns:xlink="http://www.w3.org/1999/xlink" x="0px" y="0px" viewBox="0 0 98.545 100" enable-background="new 0 0 98.545 100" xml:space="preserve"><path d="M62.448,32.007c0,7.274-5.905,13.17-13.187,13.17c-7.274,0-13.168-5.896-13.168-13.17c0-7.273,5.895-13.17,13.168-13.17
	C56.543,18.836,62.448,24.733,62.448,32.007z"></path><path d="M49.283,0c5.845,0,15.414,2.457,20.751,8.289L62.85,22.076c-3.13-4.056-8.044-6.665-13.566-6.665
	c-5.458,0-10.318,2.552-13.452,6.528L28.507,8.595C34.675,2.43,43.188,0,49.283,0z M47.206,13.205h4.097V9.799h3.409V5.704h-3.409
	v-3.42h-4.097v3.42h-3.409v4.095h3.409V13.205z"></path><g><path d="M31.957,68.847h3.374l-4.817,16.512h37.645l-4.796-16.512h3.377l4.825,16.512h11.077L75.08,60.341
		C73.898,56.21,68.72,48.94,59.784,48.72l-20.547-0.018c-9.14,0.045-14.426,7.458-15.622,11.639l-7.707,25.018h11.234L31.957,68.847
		z"></path></g><rect y="90.624" width="98.545" height="9.376"></rect></svg>