<svg xmlns="http://www.w3.org/2000/svg" xmlns:xlink="http://www.w3.org/1999/xlink" version="1.1" x="0px" y="0px" viewBox="0 0 64 80" enable-background="new 0 0 64 64" xml:space="preserve"><g><path d="M37.424,32.706c0.025,0.024,0.056,0.04,0.085,0.056l-0.184,0.273c0,0,0.158,1.6-1.033,2.664   c-0.627,0.494-1.031,1.26-1.031,2.121c0,1.49,1.209,2.697,2.698,2.697c1.49,0,2.698-1.207,2.698-2.697   c0-0.861-0.403-1.627-1.031-2.121c-1.191-1.064-1.033-2.664-1.033-2.664l-0.433-0.561c0.137-0.139,0.137-0.365-0.001-0.504   l-3.856-3.855l-0.446-2.797L15.928,7.391l1.432-1.434l-0.881-0.881l-0.734,0.734l-3.028-3.029c-1.042-1.041-2.747-1.041-3.788,0   L8.234,3.475c-1.042,1.043-1.042,2.748,0,3.789l3.029,3.029l-0.734,0.734l0.881,0.881l1.433-1.432L30.77,28.404l2.792,0.439   L37.424,32.706z M39.526,37.092l0.471-0.178c0.008,0.021,0.809,2.217-1.595,3.236l-0.196-0.463   C40.156,38.859,39.552,37.164,39.526,37.092z M31.776,26.324L14.35,8.898l0.896-0.896l17.425,17.425L31.776,26.324z"/><ellipse cx="24.389" cy="42.485" rx="5.646" ry="1.673"/><path d="M18.743,43.574v13.295c0,2.822,2.31,5.131,5.132,5.131h1.027c2.822,0,5.131-2.309,5.131-5.131V43.574   c-1.12,0.662-3.227,1.109-5.645,1.109C21.969,44.684,19.863,44.236,18.743,43.574z"/><ellipse cx="37.646" cy="42.485" rx="5.646" ry="1.673"/><path d="M32,43.574v13.295C32,59.691,34.31,62,37.132,62h1.027c2.822,0,5.131-2.309,5.131-5.131V43.574   c-1.119,0.662-3.227,1.109-5.645,1.109C35.227,44.684,33.12,44.236,32,43.574z"/><ellipse cx="50.901" cy="42.485" rx="5.646" ry="1.673"/><path d="M45.257,43.574v13.295c0,2.822,2.309,5.131,5.131,5.131h1.027c2.822,0,5.133-2.309,5.133-5.131V43.574   c-1.121,0.662-3.227,1.109-5.646,1.109C48.483,44.684,46.376,44.236,45.257,43.574z"/></g><text x="0" y="79" fill="#000000" font-size="5px" font-weight="bold" font-family="'Helvetica Neue', Helvetica, Arial-Unicode, Arial, Sans-serif">Created by Creative Stall</text><text x="0" y="84" fill="#000000" font-size="5px" font-weight="bold" font-family="'Helvetica Neue', Helvetica, Arial-Unicode, Arial, Sans-serif">from the Noun Project</text></svg>