<svg xmlns="http://www.w3.org/2000/svg" xmlns:xlink="http://www.w3.org/1999/xlink" version="1.1" x="0px" y="0px" viewBox="0 0 100 125" enable-background="new 0 0 100 100" xml:space="preserve"><path fill="none" d="M62.365,45.299l-0.001-0.002c0.323-1.037,0.611-2.586,0.611-3.763c0-0.715-0.075-1.407-0.199-2.075  c-0.568-0.915-0.953-1.952-1.107-3.067c-0.714,0.473-1.379,0.904-1.849,1.194c-0.505,0.312-1.261,0.714-2.078,1.081  c1.055,1.515,3.197,4.688,4.38,7.127C62.2,45.627,62.277,45.46,62.365,45.299z"/><path fill="none" d="M76.737,45.64c1.041-2.361,3.31-5.736,4.391-7.288c-0.775-0.349-1.492-0.731-1.972-1.026  c-0.467-0.288-1.138-0.724-1.851-1.198c-0.139,1.351-0.622,2.598-1.356,3.659c-0.09,0.568-0.153,1.147-0.153,1.747  c0,1.171,0.183,2.286,0.502,3.318C76.458,45.106,76.604,45.369,76.737,45.64z"/><path fill="none" d="M22.066,42.417l-0.011-0.001l0.035-0.154c0.058-0.331,0.131-0.655,0.222-0.973l2.111-9.265  c-1.461,0.816-3.519,1.911-4.6,2.437c-0.497,0.242-1.217,0.542-2,0.812c0.676,1.249,2.893,5.43,4.115,8.721  c0-0.021-0.003-0.04-0.003-0.061C21.936,43.417,21.988,42.913,22.066,42.417z"/><polygon fill="none" points="27.696,25.308 27.695,25.308 27.695,25.308 "/><path fill="none" d="M43.334,34.462c-1.081-0.526-3.14-1.622-4.601-2.438l2.065,9.083c0.123,0.4,0.211,0.815,0.281,1.235  l0.035,0.156l-0.012,0.001c0.07,0.47,0.118,0.946,0.118,1.436c0,0.021-0.003,0.04-0.003,0.061c1.222-3.292,3.439-7.472,4.115-8.721  C44.551,35.004,43.831,34.704,43.334,34.462z"/><circle cx="31.579" cy="16.398" r="6.694"/><circle cx="69.467" cy="17.826" r="7.479"/><path d="M49.871,35.339c0.035-0.189,0.019-0.416-0.086-0.706c-2.354-6.491-13.779-9.655-14.323-9.324  c-0.011-0.008-0.021-0.016-0.032-0.024l-0.711-1.482l-2.894,0.258v0.012c-0.083-0.003-0.164-0.012-0.247-0.012  c-0.092,0-0.181,0.01-0.272,0.014V24.06l-2.894-0.258l-0.721,1.504l0,0c-0.586-0.316-11.97,2.848-14.32,9.326  c-0.105,0.29-0.122,0.517-0.086,0.706c-0.2,0.614-0.158,1.303,0.185,1.909c0,0,6.98,12.061,8.938,10.954  c0.156-0.089,0.252-0.255,0.305-0.473c0.082,0.192,0.177,0.377,0.271,0.562c0.048,2.397-0.016,3.421-0.016,3.421l0.001,0  c-0.647,4.005-1.206,13.863,0.519,37.917c0,0,0.167,0.102,0.45,0.236v0.879c0,1.727,1.186,3.127,2.65,3.127h0.014  c1.463,0,2.65-1.4,2.65-3.127v-0.853c0.15-0.08,0.3-0.162,0.45-0.261c0.335-8.742,0.027-18.352,0.396-25.491  c0.02-0.2,0.037-0.39,0.052-0.562c0.06-0.685,0.122-1.624,0.182-2.658c0.228-2.304,0.577-4.198,1.111-5.521  c2.217,5.493,1.229,20.875,1.74,34.231c0.172,0.114,0.345,0.211,0.518,0.3v0.75c0,1.727,1.186,3.127,2.65,3.127h0.014  c1.463,0,2.65-1.4,2.65-3.127v-0.847c0.241-0.117,0.382-0.203,0.382-0.203c1.741-24.267,1.157-34.083,0.502-38.019l0.008-0.001  c0,0-0.052-0.846-0.026-2.787c0.208-0.352,0.401-0.714,0.563-1.094c0.053,0.218,0.149,0.384,0.305,0.473  c1.957,1.108,8.938-10.954,8.938-10.954C50.029,36.642,50.071,35.952,49.871,35.339z M22.312,41.29  c-0.091,0.318-0.164,0.643-0.222,0.973l-0.035,0.154l0.011,0.001c-0.078,0.495-0.131,0.999-0.131,1.516  c0,0.021,0.003,0.04,0.003,0.061c-1.222-3.292-3.439-7.472-4.115-8.721c0.782-0.27,1.502-0.57,2-0.812  c1.081-0.526,3.138-1.621,4.6-2.437L22.312,41.29z M27.695,25.308L27.695,25.308L27.695,25.308  C27.695,25.308,27.695,25.308,27.695,25.308z M31.579,42.104l-1.257-1.347l0.259-14.421c-0.081-0.156-0.137-0.326-0.137-0.513  c0-0.627,0.508-1.135,1.135-1.135c0.627,0,1.135,0.508,1.135,1.135c0,0.188-0.057,0.357-0.138,0.513l0.259,14.421L31.579,42.104z   M37.332,31.443c-0.778,0.519-1.814-0.51-2.595-0.007v1.322c0,0.067-0.042,0.189-0.109,0.189s-0.133-0.122-0.133-0.189v-3.455  c0-0.067,0.054-0.121,0.121-0.121c0.067,0,0.121,0.054,0.121,0.121v0.046c0.781-0.503,1.817,0.525,2.595,0.007  C37.332,30.139,37.592,30.921,37.332,31.443z M41.218,43.995c0-0.021,0.003-0.04,0.003-0.061c0-0.489-0.048-0.966-0.118-1.436  l0.012-0.001l-0.035-0.156c-0.07-0.421-0.158-0.835-0.281-1.235l-2.065-9.083c1.462,0.816,3.52,1.911,4.601,2.438  c0.497,0.242,1.217,0.542,1.999,0.812C44.658,36.523,42.441,40.703,41.218,43.995z"/><path d="M84.925,39.88c0.385-0.522,0.471-1.167,0.301-1.745c-0.004-0.015-0.002-0.026-0.006-0.042  c-1.547-6.099-11.292-10.084-12.519-10.148c-0.102-0.049-0.21-0.086-0.314-0.131l0.013-0.003l-0.71-1.155h-1.535h-1.809h-1.535  l-0.71,1.155l0.001,0c-2.452,0.686-11.18,4.699-12.673,10.584c-0.004,0.017-0.002,0.028-0.006,0.044  c-0.179,0.609-0.089,1.289,0.317,1.839c0,0,4.728,6.273,7.434,8.178c-0.113,0.384-0.229,0.811-0.346,1.257  c-0.006-0.023-0.013-0.043-0.019-0.066c-0.016,0.11-0.03,0.212-0.045,0.319c-0.637,2.501-1.25,5.839-1.33,9.418  c-0.044,0.309-0.044,0.309-0.044,0.309L56.18,83.502c1.963,0.573,3.84,0.994,5.625,1.295c0.481,4.691,1.338,9.075,2.86,9.075  c1.458,0,2.304-4.022,2.796-8.484c1.269,0.051,2.47,0.043,3.598-0.01c0.496,4.368,1.339,8.25,2.771,8.25  c1.506,0,2.359-4.291,2.844-8.925c3.748-0.748,5.844-1.807,5.844-1.807l-3.265-23.202c0,0-0.001-0.004-0.197-1.395  c-0.138-4.111-0.919-7.842-1.567-10.203C79.864,47.005,84.925,39.88,84.925,39.88z M62.365,45.299  c-0.088,0.161-0.165,0.329-0.243,0.496c-1.182-2.438-3.324-5.612-4.38-7.127c0.816-0.368,1.572-0.77,2.078-1.081  c0.47-0.29,1.135-0.721,1.849-1.194c0.153,1.114,0.538,2.152,1.107,3.067c0.124,0.669,0.199,1.36,0.199,2.075  c0,1.178-0.288,2.726-0.611,3.763L62.365,45.299z M69.323,46.041l-1.071-1.36l0.221-14.563c-0.069-0.158-0.117-0.329-0.117-0.519  c0-0.633,0.433-1.146,0.968-1.146s0.968,0.513,0.968,1.146c0,0.19-0.048,0.361-0.117,0.518l0.221,14.563L69.323,46.041z   M75.679,34.888c-0.778,0.519-1.814-0.51-2.595-0.007v1.322c0,0.067-0.042,0.189-0.109,0.189s-0.133-0.122-0.133-0.189v-3.455  c0-0.067,0.054-0.121,0.121-0.121s0.121,0.054,0.121,0.121v0.046c0.781-0.503,1.817,0.525,2.595,0.007  C75.679,33.584,75.94,34.366,75.679,34.888z M76.737,45.64c-0.133-0.271-0.278-0.534-0.439-0.788  c-0.319-1.032-0.502-2.148-0.502-3.318c0-0.6,0.063-1.18,0.153-1.747c0.734-1.061,1.217-2.308,1.356-3.659  c0.713,0.474,1.384,0.91,1.851,1.198c0.479,0.296,1.197,0.677,1.972,1.026C80.046,39.904,77.778,43.279,76.737,45.64z"/><text x="0" y="115" fill="#000000" font-size="5px" font-weight="bold" font-family="'Helvetica Neue', Helvetica, Arial-Unicode, Arial, Sans-serif">Created by Marie Van den Broeck</text><text x="0" y="120" fill="#000000" font-size="5px" font-weight="bold" font-family="'Helvetica Neue', Helvetica, Arial-Unicode, Arial, Sans-serif">from the Noun Project</text></svg>