<svg xmlns="http://www.w3.org/2000/svg" xmlns:xlink="http://www.w3.org/1999/xlink" version="1.1" x="0px" y="0px" viewBox="0 0 100 125" enable-background="new 0 0 100 100" xml:space="preserve"><path d="M26.351,7.008c-5.652,3.768-13.178-3.701-18.85-0.048V6.623c0-0.485-0.393-0.878-0.878-0.878  c-0.485,0-0.878,0.393-0.878,0.878v31.702c0,0.485,0.393,0.878,0.878,0.878c0.485,0,0.878-0.393,0.878-0.878V22.111  c5.672-3.653,13.197,3.816,18.85,0.048C28.245,18.371,26.351,12.689,26.351,7.008z"/><path d="M96.351,7.008c-5.652,3.768-13.178-3.701-18.85-0.048V6.623c0-0.485-0.393-0.878-0.878-0.878  c-0.485,0-0.878,0.393-0.878,0.878v31.702c0,0.485,0.393,0.878,0.878,0.878c0.485,0,0.878-0.393,0.878-0.878V22.111  c5.672-3.653,13.197,3.816,18.85,0.048C98.245,18.371,96.351,12.689,96.351,7.008z"/><polygon fill="none" points="46.229,20.603 46.23,20.603 46.229,20.603 "/><path fill="none" d="M53.066,24.528v-0.045c0-0.065-0.053-0.117-0.117-0.117c-0.065,0-0.117,0.053-0.117,0.117v3.354  c0,0.065,0.064,0.183,0.129,0.183c0.065,0,0.106-0.118,0.106-0.183v-1.284c0.758-0.488,1.764,0.51,2.52,0.006  c0.253-0.506,0-1.266,0-2.025C54.83,25.038,53.824,24.04,53.066,24.528z"/><path d="M47.091,32.757l-0.071,0.138l-0.036,0.07l-0.034,0.066c-0.106,0.208-0.024,0.462,0.184,0.568l2.37,1.212  c0.208,0.106,0.462,0.024,0.568-0.184l0.14-0.274c0.106-0.208,0.024-0.462-0.184-0.568l-2.37-1.212  C47.452,32.467,47.197,32.549,47.091,32.757z"/><path d="M46.818,37.105c0.54,0.276,1.203,0.09,1.52-0.427l0.936-1.451l-2.327-1.19l-0.671,1.587  C46.041,36.183,46.277,36.829,46.818,37.105z"/><circle cx="50" cy="11.953" r="6.5"/><path d="M49.51,36.02l-0.637,0.985c-0.089,0.145-0.2,0.269-0.324,0.38v2.261H35.378l4.242,54.9h20.444l4.535-54.9H49.51V36.02z"/><path d="M67.761,30.343c0.034-0.183,0.018-0.404-0.084-0.686c-2.286-6.303-13.379-9.374-13.907-9.053  c-0.01-0.007-0.02-0.016-0.031-0.023l-0.69-1.439l-2.81,0.25v0.012c-0.08-0.003-0.159-0.012-0.24-0.012  c-0.089,0-0.176,0.01-0.264,0.013v-0.013l-2.81-0.25l-0.7,1.46l0,0c-0.569-0.307-11.622,2.765-13.904,9.055  c-0.102,0.282-0.118,0.502-0.084,0.686c-0.194,0.596-0.154,1.266,0.179,1.854c0,0,2.018,3.486,4.161,6.479h4.034  c-1.192-3.185-3.317-7.192-3.968-8.396c0.76-0.262,1.459-0.553,1.941-0.788c1.05-0.511,3.047-1.574,4.466-2.366l-2.05,8.996  c-0.088,0.309-0.159,0.624-0.215,0.945l-0.034,0.149l0.011,0.001c-0.076,0.477-0.126,0.962-0.126,1.46h6.94v-0.502  c-0.078,0.008-0.153,0.029-0.232,0.029c-0.335,0-0.67-0.081-0.97-0.234c-0.985-0.503-1.423-1.698-0.997-2.72l0.65-1.536  c-0.133-0.355-0.128-0.76,0.058-1.123l0.14-0.274c0.142-0.276,0.378-0.481,0.65-0.607L47,31.418  c-0.191-0.774-0.101-1.593,0.261-2.301c0.364-0.711,0.957-1.248,1.664-1.546l0.107-5.97c-0.078-0.151-0.133-0.316-0.133-0.498  c0-0.609,0.493-1.102,1.102-1.102c0.609,0,1.102,0.493,1.102,1.102c0,0.182-0.055,0.347-0.134,0.499l0.105,5.827  c0.227,0.061,0.45,0.137,0.659,0.244c0.791,0.404,1.377,1.092,1.649,1.937c0.273,0.845,0.201,1.745-0.203,2.536  c-0.375,0.734-1.014,1.296-1.786,1.586l-0.172,0.268c0.017,0.14,0.006,0.283-0.021,0.424l0.021,1.18l-0.739,0.792v2.281h8.881  c-0.001-0.471-0.047-0.93-0.115-1.381l0.011-0.001l-0.034-0.151c-0.068-0.408-0.154-0.811-0.273-1.199l-2.005-8.819  c1.419,0.793,3.418,1.856,4.468,2.367c0.483,0.235,1.182,0.526,1.941,0.788c-0.652,1.204-2.776,5.211-3.968,8.396h4.034  c2.142-2.994,4.161-6.479,4.161-6.479C67.915,31.608,67.955,30.938,67.761,30.343z M46.229,20.603L46.229,20.603L46.229,20.603  L46.229,20.603z M55.586,26.56c-0.756,0.504-1.762-0.495-2.52-0.006v1.284c0,0.065-0.041,0.183-0.106,0.183  c-0.065,0-0.129-0.118-0.129-0.183v-3.354c0-0.065,0.053-0.117,0.117-0.117c0.065,0,0.117,0.053,0.117,0.117v0.045  c0.758-0.488,1.764,0.51,2.52,0.006C55.586,25.294,55.839,26.053,55.586,26.56z"/><path d="M47.874,32.15l2.372,1.212c0.06,0.031,0.101,0.079,0.151,0.12l0.37-0.574c0.644-0.155,1.222-0.57,1.548-1.206  c0.592-1.157,0.134-2.574-1.023-3.166c-1.157-0.592-2.574-0.134-3.166,1.023c-0.317,0.619-0.325,1.309-0.094,1.911l-0.274,0.648  C47.796,32.132,47.837,32.131,47.874,32.15z"/><text x="0" y="115" fill="#000000" font-size="5px" font-weight="bold" font-family="'Helvetica Neue', Helvetica, Arial-Unicode, Arial, Sans-serif">Created by Marie Van den Broeck</text><text x="0" y="120" fill="#000000" font-size="5px" font-weight="bold" font-family="'Helvetica Neue', Helvetica, Arial-Unicode, Arial, Sans-serif">from the Noun Project</text></svg>