<svg xmlns="http://www.w3.org/2000/svg" xmlns:xlink="http://www.w3.org/1999/xlink" version="1.1" x="0px" y="0px" viewBox="0 0 100 125" enable-background="new 0 0 100 100" xml:space="preserve"><circle cx="46.898" cy="38.47" r="4.403"/><path d="M38.615,28.948L38.615,28.948l0.024,0.012c2.094,1.29,12.905,5.735,25.002-5.613c4.871-4.941,7.172-12.465,7.172-12.465  s-5.173,2.331-9.209,0.772c-2.731-1.058-5.448-4.328-5.969-4.978c-1.259-1.415-2.821-2.625-4.648-3.448  C43.871-0.008,35.462,3.22,32.23,10.413C29.083,17.421,31.952,25.494,38.615,28.948z"/><path d="M82.765,64.106V53.079c0-9.705-7.189-19.215-18.548-19.215h-5.629L46.942,59.755L35.294,33.864h-4.938  c-11.358,0-18.548,9.51-18.548,19.215v39.237c-0.024,8.788,11.432,8.788,11.432,0V54.009h3.592v44.894l7.182,0.005v0.017h19.941  v-0.021h38.373V64.106H82.765z M67.74,54.009h3.593v10.098h-3.598L67.74,54.009z M55.259,67.659h16.074v13.894h-6.029v-4.849h-4.231  v4.849h-5.813V67.659z M88.775,95.35H55.259V85.106h16.074v0.694c0,8.788,11.455,8.788,11.432,0v-0.694h6.011V95.35z M88.775,81.553  h-6.011V67.659h6.011V81.553z"/><text x="0" y="115" fill="#000000" font-size="5px" font-weight="bold" font-family="'Helvetica Neue', Helvetica, Arial-Unicode, Arial, Sans-serif">Created by Luis Prado</text><text x="0" y="120" fill="#000000" font-size="5px" font-weight="bold" font-family="'Helvetica Neue', Helvetica, Arial-Unicode, Arial, Sans-serif">from the Noun Project</text></svg>