<svg xmlns="http://www.w3.org/2000/svg" xmlns:xlink="http://www.w3.org/1999/xlink" version="1.0" x="0px" y="0px" viewBox="0 0 50 62.5" enable-background="new 0 0 50 50" xml:space="preserve"><g><g><path fill="#000000" d="M29.902,4.738c0-1.962-2.156-3.265-4.523-3.265c-2.369,0-4.545,1.495-4.545,3.457    c0,0.507,0.128,0.896,0.084,1.52L21.452,11c0,0,2.854,2.668,4.064,2.647C26.67,13.628,29.305,11,29.305,11l0.535-4.548    C29.84,5.697,29.902,5.246,29.902,4.738z"/><path fill="#000000" d="M37.877,22L38,21.577V22h-0.041l-3.1-7.358l-4.738-1.416c0,0-3.205,3.078-4.593,3.086    c-1.415,0.009-4.72-3.167-4.72-3.167l-5.499,1.87L12.999,22H13v4h25v-4H37.877z"/></g><rect x="8" y="29" fill="#000000" width="34" height="5"/><polygon fill="#000000" points="37.545,49 13.331,49 10.235,35 40.641,35  "/></g><text x="0" y="65" fill="#000000" font-size="5px" font-weight="bold" font-family="'Helvetica Neue', Helvetica, Arial-Unicode, Arial, Sans-serif">Created by Mister Pixel</text><text x="0" y="70" fill="#000000" font-size="5px" font-weight="bold" font-family="'Helvetica Neue', Helvetica, Arial-Unicode, Arial, Sans-serif">from the Noun Project</text></svg>