<?xml version="1.0" encoding="utf-8"?>
<!-- Generator: Adobe Illustrator 16.0.4, SVG Export Plug-In . SVG Version: 6.00 Build 0)  -->
<!DOCTYPE svg PUBLIC "-//W3C//DTD SVG 1.1//EN" "http://www.w3.org/Graphics/SVG/1.1/DTD/svg11.dtd">
<svg version="1.1" id="Layer_1" xmlns="http://www.w3.org/2000/svg" xmlns:xlink="http://www.w3.org/1999/xlink" x="0px" y="0px"
	 width="391px" height="473.141px" viewBox="221.445 0 391 473.141" enable-background="new 221.445 0 391 473.141"
	 xml:space="preserve">
<g>
	<polygon points="267.063,452.323 267.005,438.779 389.628,438.264 385.176,355.802 255.957,332.657 267.91,169.302 
		281.416,170.293 270.349,321.485 398.119,344.363 403.914,451.732 	"/>
	<polygon points="590.99,452.413 495.355,452.413 495.355,293.768 584.18,293.768 584.18,248.527 427.073,248.527 427.073,234.912 
		597.8,234.912 597.8,307.388 508.97,307.388 508.97,438.798 590.99,438.798 	"/>
	<polygon points="487.535,227.34 487.535,206.234 478.321,204.781 467.324,203.043 414.658,194.733 364.793,119.937 
		301.517,118.013 282.34,311.718 406.987,336.657 414.658,451.732 449.18,451.732 452.67,356.464 464.605,356.464 454.943,294.473 
		371.46,272.415 363.493,184.885 387.814,227.34 	"/>
	<path d="M331.791,24.44c-8.349,1.318-15.64,5.219-21.254,10.738l-0.152-0.086l-0.653,0.92c-2.733,2.848-5.028,6.086-6.81,9.624
		L266.32,97.369l-23.183,11.682l17.811,17.935l9.463-25.487l31.378-22.635c6.863,16.443,24.131,26.735,42.37,23.854
		c21.449-3.391,36.098-23.668,32.679-45.293C373.422,35.817,353.24,21.05,331.791,24.44z"/>
</g>
</svg>
