<svg xmlns:dc="http://purl.org/dc/elements/1.1/" xmlns:cc="http://creativecommons.org/ns#" xmlns:rdf="http://www.w3.org/1999/02/22-rdf-syntax-ns#" xmlns:svg="http://www.w3.org/2000/svg" xmlns="http://www.w3.org/2000/svg" version="1.1" viewBox="0 0 100.00001 125" xml:space="preserve" x="0px" y="0px"><path d="M 50,5 C 38.762718,5 26.356024,14.024037 27.6875,21.5625 27.77762,22.080388 27.954608,22.540487 28.21875,23 31.060491,21.54375 39.652941,17.65625 50,17.65625 c 10.344122,0 18.936754,3.8875 21.78125,5.34375 0.261205,-0.459513 0.438216,-0.919612 0.53125,-1.4375 C 73.641039,14.024037 61.234326,5 50,5 z m 0.03125,0.8125 c 2.640533,0 4.75,2.1407358 4.75,4.78125 0,2.640333 -2.109467,4.78125 -4.75,4.78125 -2.64035,0 -4.8125,-2.140917 -4.8125,-4.78125 0,-2.6405142 2.173609,-4.78125 4.8125,-4.78125 z m -0.0625,0.53125 A 0.25196126,0.25196126 0 0 0 49.9375,6.375 0.25196126,0.25196126 0 0 0 49.875,6.40625 0.25196126,0.25196126 0 0 0 49.78125,6.53125 L 48.9375,9.125 l -2.71875,0 a 0.25196126,0.25196126 0 0 0 -0.03125,0 0.25196126,0.25196126 0 0 0 -0.21875,0.28125 0.25196126,0.25196126 0 0 0 0.09375,0.15625 L 48.28125,11.15625 47.4375,13.75 a 0.25196126,0.25196126 0 0 0 0,0.15625 0.25196126,0.25196126 0 0 0 0.03125,0.0625 0.25196126,0.25196126 0 0 0 0.1875,0.09375 0.25196126,0.25196126 0 0 0 0.0625,0 0.25196126,0.25196126 0 0 0 0.09375,-0.03125 l 2.21875,-1.59375 2.1875,1.59375 a 0.25196126,0.25196126 0 0 0 0.125,0.03125 0.25196126,0.25196126 0 0 0 0.09375,0 0.25196126,0.25196126 0 0 0 0.15625,-0.15625 A 0.25196126,0.25196126 0 0 0 52.625,13.8125 0.25196126,0.25196126 0 0 0 52.59375,13.75 L 51.75,11.15625 53.96875,9.5625 a 0.25196126,0.25196126 0 0 0 0.09375,-0.125 0.25196126,0.25196126 0 0 0 0,-0.125 0.25196126,0.25196126 0 0 0 -0.1875,-0.1875 0.25196126,0.25196126 0 0 0 -0.0625,0 l -2.71875,0 L 50.25,6.53125 A 0.25196126,0.25196126 0 0 0 50.15625,6.40625 0.25196126,0.25196126 0 0 0 50.09375,6.375 0.25196126,0.25196126 0 0 0 50,6.34375 a 0.25196126,0.25196126 0 0 0 -0.03125,0 z M 50,19.0625 c -9.619007,0 -17.890789,3.615244 -20.875,5.09375 C 32.110853,25.639498 40.380993,29.25 50,29.25 c 9.616087,0 17.89079,-3.609042 20.875,-5.09375 C 67.89079,22.677744 59.616087,19.0625 50,19.0625 z m 17.84375,9.46875 c -11.277294,4.663105 -24.350637,4.502583 -35.6875,0.03125 l -0.03125,2.125 c -1.470145,-0.01977 -1.8125,1.438849 -1.8125,4.34375 0,4.353891 2.649137,8.897095 5.0625,11.25 0.81805,3.422694 2.366141,6.452849 4.46875,8.75 -0.07337,0.04547 -0.145381,0.08012 -0.21875,0.125 -0.951739,0.698497 -1.970357,1.317876 -3.03125,1.90625 L 33.9375,77.625 32.0625,77.5 28.625,69.21875 l 0,-8.5 c -0.716686,0.289837 -1.444883,0.552529 -2.15625,0.84375 l 0,7.65625 -3.4375,8.28125 -1.875,0.125 L 19.5,64.84375 c -2.220778,1.27916 -4.194025,2.785762 -5.6875,4.6875 -4.2217836,5.444439 -5.9930728,10.760236 -6.03125,16.125 -0.00198,0.185251 -0.00277,0.377249 0,0.5625 0.00554,0.370107 0.00938,0.723446 0.03125,1.09375 0.1459271,2.504941 2.989343,3.333667 5.09375,3.84375 C 25.75015,93.440155 38.229745,95.015619 50,95 c 11.770236,0.01384 24.24981,-1.559845 37.09375,-3.84375 2.104329,-0.510281 4.947822,-1.338809 5.09375,-3.84375 0.02169,-0.370304 0.02577,-0.723643 0.03125,-1.09375 0.0028,-0.185251 0.002,-0.377249 0,-0.5625 -0.03814,-5.364764 -1.809386,-10.680561 -6.03125,-16.125 -5.640465,-7.182675 -17.931466,-8.5909 -25.8125,-14.375 -0.07343,-0.04488 -0.176631,-0.07953 -0.25,-0.125 2.102609,-2.297151 3.681931,-5.327306 4.5,-8.75 2.413284,-2.352905 5.0625,-6.896109 5.0625,-11.25 0,-2.904704 -0.342434,-4.36273 -1.8125,-4.34375 l -0.03125,-2.15625 z m -7.71875,43.3125 4.34375,0 c 0.438078,0 0.78125,0.374383 0.78125,0.8125 l 0,1.5625 c 0,0.438117 -0.343172,0.8125 -0.78125,0.8125 l -4.34375,0 c -0.438117,0 -0.8125,-0.374383 -0.8125,-0.8125 l 0,-1.5625 c 0,-0.438117 0.374383,-0.8125 0.8125,-0.8125 z m 7,0 4.34375,0 c 0.438078,0 0.78125,0.374383 0.78125,0.8125 l 0,1.5625 c 0,0.438117 -0.343172,0.8125 -0.78125,0.8125 l -4.34375,0 c -0.438117,0 -0.8125,-0.374383 -0.8125,-0.8125 l 0,-1.5625 c 0,-0.438117 0.374383,-0.8125 0.8125,-0.8125 z m 6.96875,0 4.375,0 c 0.438077,0 0.78125,0.374383 0.78125,0.8125 l 0,1.5625 c 0,0.438117 -0.343173,0.8125 -0.78125,0.8125 l -4.375,0 c -0.438117,0 -0.78125,-0.374383 -0.78125,-0.8125 l 0,-1.5625 c 0,-0.438117 0.343133,-0.8125 0.78125,-0.8125 z m -46.5625,1.75 c 0.228292,0 0.474718,0.132995 0.5625,0.34375 l 2.21875,5.40625 5.8125,0.46875 c 0.227955,0.01779 0.460392,0.188971 0.53125,0.40625 0.0709,0.21728 -0.01464,0.476324 -0.1875,0.625 l -4.4375,3.78125 1.375,5.6875 c 0.05324,0.222024 -0.03388,0.45931 -0.21875,0.59375 -0.184935,0.134441 -0.461213,0.150471 -0.65625,0.03125 l -5,-3.03125 -4.96875,3.03125 c -0.09921,0.06089 -0.22742,0.09948 -0.34375,0.09375 -0.170186,-0.0079 -0.335345,-0.113383 -0.4375,-0.25 -0.102116,-0.136418 -0.133631,-0.30327 -0.09375,-0.46875 l 1.375,-5.6875 -4.4375,-3.78125 c -0.173349,-0.148478 -0.258002,-0.407918 -0.1875,-0.625 0.07058,-0.217279 0.272479,-0.387863 0.5,-0.40625 L 24.75,79.34375 27,73.9375 c 0.08782,-0.210755 0.302919,-0.34375 0.53125,-0.34375 z m 32.59375,2.21875 2.375,0 c 0.438078,0 0.78125,0.343133 0.78125,0.78125 l 0,1.59375 c 0,0.438117 -0.343172,0.78125 -0.78125,0.78125 l -2.375,0 c -0.438117,0 -0.8125,-0.343133 -0.8125,-0.78125 l 0,-1.59375 c 0,-0.438117 0.374383,-0.78125 0.8125,-0.78125 z m 4.78125,0 3.15625,0 c 0.438078,0 0.8125,0.343133 0.8125,0.78125 l 0,1.59375 c 0,0.438117 -0.374422,0.78125 -0.8125,0.78125 l -3.15625,0 c -0.438118,0 -0.78125,-0.343133 -0.78125,-0.78125 l 0,-1.59375 c 0,-0.438117 0.343132,-0.78125 0.78125,-0.78125 z m 5.59375,0 3.15625,0 c 0.438078,0 0.78125,0.343133 0.78125,0.78125 l 0,1.59375 c 0,0.438117 -0.343172,0.78125 -0.78125,0.78125 l -3.15625,0 c -0.438117,0 -0.78125,-0.343133 -0.78125,-0.78125 l 0,-1.59375 c 0,-0.438117 0.343133,-0.78125 0.78125,-0.78125 z m 5.59375,0 2.375,0 c 0.438077,0 0.78125,0.343133 0.78125,0.78125 l 0,1.59375 c 0,0.438117 -0.343173,0.78125 -0.78125,0.78125 l -2.375,0 c -0.438118,0 -0.8125,-0.343133 -0.8125,-0.78125 l 0,-1.59375 c 0,-0.438117 0.374382,-0.78125 0.8125,-0.78125 z m -15.96875,3.96875 4.34375,0 c 0.438078,0 0.78125,0.343132 0.78125,0.78125 l 0,1.59375 c 0,0.438117 -0.343172,0.78125 -0.78125,0.78125 l -4.34375,0 c -0.438117,0 -0.8125,-0.343133 -0.8125,-0.78125 l 0,-1.59375 c 0,-0.438118 0.374383,-0.78125 0.8125,-0.78125 z m 7,0 4.34375,0 c 0.438078,0 0.78125,0.343132 0.78125,0.78125 l 0,1.59375 c 0,0.438117 -0.343172,0.78125 -0.78125,0.78125 l -4.34375,0 c -0.438117,0 -0.8125,-0.343133 -0.8125,-0.78125 l 0,-1.59375 c 0,-0.438118 0.374383,-0.78125 0.8125,-0.78125 z m 6.96875,0 4.375,0 c 0.438077,0 0.78125,0.343132 0.78125,0.78125 l 0,1.59375 c 0,0.438117 -0.343173,0.78125 -0.78125,0.78125 l -4.375,0 c -0.438117,0 -0.78125,-0.343133 -0.78125,-0.78125 l 0,-1.59375 c 0,-0.438118 0.343133,-0.78125 0.78125,-0.78125 z" transform="translate(0,-5e-6)" style="" fill="#000000" fill-opacity="1" stroke="none"/><text x="0" y="115" fill="#000000" font-size="5px" font-weight="bold" font-family="'Helvetica Neue', Helvetica, Arial-Unicode, Arial, Sans-serif">Created by Aha-Soft</text><text x="0" y="120" fill="#000000" font-size="5px" font-weight="bold" font-family="'Helvetica Neue', Helvetica, Arial-Unicode, Arial, Sans-serif">from the Noun Project</text></svg>