<svg xmlns="http://www.w3.org/2000/svg" xmlns:xlink="http://www.w3.org/1999/xlink" version="1.1" x="0px" y="0px" viewBox="0 0 100 125" enable-background="new 0 0 100 100" xml:space="preserve"><path d="M56.906,36.054c0.498-1.108,0.276-2.354,0.11-3.103c-0.168-0.747-0.305-2.16-0.887-3.406  c-0.235-0.506-2.105-2.106-2.936-2.438s-1.062-0.095-1.533-0.07c-0.557,0.031-0.82-0.79-2.401-0.707  c-1.577-0.083-2.243,0.166-2.741,0.416c-0.499,0.25-1.081,0.666-1.912,0.998c-0.832,0.332-1.58,1.995-1.828,2.493  c-0.25,0.498-0.998,1.163-1.164,1.911c-0.167,0.747-0.167,3.24,0,3.905c-0.831,0.416-1.496,3.988,1.164,5.317  c0.581,1.912,2.826,6.067,6.48,6.067c3.657,0,5.901-4.155,6.483-6.067C58.402,40.042,57.736,36.47,56.906,36.054z"/><path d="M59.538,49.126c-2.939-0.885-3.961-1.168-4.42-1.465c-0.405-0.264-0.91-0.575-1.344-0.694  c-0.027,0.083-2.16,8.226-2.574,10.138c-0.083-0.222-0.749-5.512-0.97-6.398c0.139-0.166,0.747-1.522,0.97-2.271  c-0.223,0.055-0.97,0.139-1.94,0.137c-0.969,0.002-1.717-0.082-1.938-0.137c0.221,0.748,0.83,2.104,0.969,2.271  c-0.221,0.887-0.886,6.177-0.969,6.398c-0.416-1.912-2.549-10.055-2.577-10.138c-0.434,0.12-0.937,0.43-1.343,0.694  c-0.457,0.297-1.482,0.58-4.418,1.465c-2.937,0.887-7.617,0.998-7.34,12.188c6.98,0,17.616,0,17.616,0s10.636,0,17.618,0  C67.155,50.124,62.474,50.013,59.538,49.126z"/><path d="M94.011,87.548L70.117,63.653c3.757-4.697,5.796-10.488,5.796-16.589c0-7.114-2.769-13.802-7.799-18.831  c-5.03-5.031-11.717-7.802-18.831-7.802c-7.113,0-13.801,2.771-18.831,7.802c-5.03,5.029-7.801,11.717-7.801,18.831  c0,7.114,2.771,13.801,7.801,18.832c5.03,5.028,11.718,7.8,18.831,7.8c6.104,0,11.892-2.04,16.591-5.799l23.894,23.896  L94.011,87.548z M31.513,64.834c-4.748-4.747-7.361-11.059-7.361-17.77c0-6.714,2.613-13.024,7.361-17.771  c4.746-4.747,11.057-7.362,17.77-7.362c6.714,0,13.024,2.615,17.771,7.362c9.8,9.799,9.8,25.741,0,35.541  c-4.746,4.747-11.057,7.363-17.771,7.363C42.57,72.197,36.259,69.581,31.513,64.834z"/><g><path d="M93.34,43.197c0.306-0.677,0.17-1.441,0.07-1.899c-0.103-0.458-0.188-1.323-0.545-2.085   c-0.144-0.31-1.288-1.291-1.797-1.494c-0.507-0.204-0.647-0.059-0.94-0.042c-0.34,0.019-0.502-0.482-1.467-0.434   c-0.97-0.049-1.374,0.103-1.683,0.254c-0.305,0.155-0.661,0.407-1.168,0.611c-0.509,0.203-0.966,1.221-1.125,1.528   c-0.146,0.305-0.608,0.709-0.708,1.169c-0.103,0.458-0.103,1.982,0,2.391c-0.51,0.256-0.916,2.445,0.708,3.258   c0.357,1.173,1.735,3.716,3.976,3.716c2.236,0,3.613-2.543,3.97-3.716C94.257,45.642,93.852,43.454,93.34,43.197z"/><path d="M94.953,51.206c-1.799-0.543-2.426-0.716-2.704-0.9c-0.249-0.159-0.56-0.35-0.824-0.424   c-0.019,0.053-1.325,5.039-1.577,6.211c-0.051-0.138-0.461-3.376-0.593-3.918c0.083-0.104,0.455-0.936,0.593-1.394   c-0.138,0.035-0.593,0.085-1.187,0.085c-0.598,0-1.054-0.05-1.19-0.085c0.137,0.458,0.51,1.29,0.593,1.394   c-0.133,0.542-0.539,3.78-0.593,3.918c-0.252-1.172-1.56-6.158-1.577-6.211c-0.265,0.074-0.571,0.265-0.82,0.424   c-0.282,0.185-0.908,0.357-2.707,0.9c-1.799,0.541-4.669,0.612-4.499,7.465c4.277,0,10.794,0,10.794,0s6.512,0,10.79,0   C99.616,51.818,96.755,51.747,94.953,51.206z"/></g><g><path d="M15.485,43.197c0.307-0.677,0.17-1.441,0.07-1.899c-0.102-0.458-0.187-1.323-0.544-2.085   c-0.144-0.31-1.289-1.291-1.798-1.494c-0.507-0.204-0.648-0.059-0.94-0.042c-0.34,0.019-0.502-0.482-1.467-0.434   c-0.97-0.049-1.374,0.103-1.683,0.254c-0.304,0.155-0.661,0.407-1.168,0.611c-0.509,0.203-0.966,1.221-1.125,1.528   c-0.147,0.305-0.608,0.709-0.708,1.169c-0.103,0.458-0.103,1.982,0,2.391c-0.51,0.256-0.917,2.445,0.708,3.258   c0.356,1.173,1.735,3.716,3.976,3.716c2.235,0,3.613-2.542,3.97-3.716C16.401,45.642,15.996,43.454,15.485,43.197z"/><path d="M17.098,51.206c-1.8-0.543-2.426-0.716-2.705-0.9c-0.249-0.159-0.559-0.35-0.825-0.424   c-0.018,0.053-1.324,5.039-1.576,6.211c-0.05-0.138-0.461-3.376-0.593-3.918c0.083-0.104,0.455-0.936,0.593-1.394   c-0.138,0.035-0.593,0.085-1.187,0.085c-0.598,0-1.054-0.05-1.191-0.085c0.137,0.458,0.51,1.29,0.593,1.394   c-0.132,0.542-0.539,3.78-0.593,3.918c-0.252-1.172-1.559-6.158-1.577-6.211c-0.265,0.074-0.571,0.265-0.82,0.424   c-0.283,0.185-0.908,0.357-2.708,0.9c-1.798,0.541-4.668,0.612-4.498,7.465c4.276,0,10.794,0,10.794,0s6.511,0,10.789,0   C21.761,51.818,18.899,51.747,17.098,51.206z"/></g><text x="0" y="115" fill="#000000" font-size="5px" font-weight="bold" font-family="'Helvetica Neue', Helvetica, Arial-Unicode, Arial, Sans-serif">Created by gilbert bages</text><text x="0" y="120" fill="#000000" font-size="5px" font-weight="bold" font-family="'Helvetica Neue', Helvetica, Arial-Unicode, Arial, Sans-serif">from the Noun Project</text></svg>