<svg xmlns="http://www.w3.org/2000/svg" xmlns:xlink="http://www.w3.org/1999/xlink" version="1.1" x="0px" y="0px" viewBox="0 0 56.989 89.37625" enable-background="new 0 0 56.989 71.501" xml:space="preserve"><g><path d="M28.415,24.501c6.756,0,12.24-5.481,12.24-12.237C40.654,5.484,35.171,0,28.415,0c-6.767,0-12.25,5.484-12.25,12.264   C16.164,19.02,21.648,24.501,28.415,24.501z"/><path d="M36.995,27.007L12.818,65.718v4.454l26.688-42.924C38.711,27.133,37.865,27.06,36.995,27.007z"/><path d="M12.818,56.288l18.331-29.387c-4.733,0-11.641,0-11.641,0S0,28.248,0,43.902c0,2.962,0,15.902,0,27.599h10.994V47.077   h1.824V56.288z"/><path d="M44.659,28.522L17.933,71.501h2.463l26.285-42.065C46.042,29.108,45.379,28.797,44.659,28.522z"/><path d="M50.847,32.301l-24.474,39.2h17.869V47.244h2.082v24.257h10.665V44.064C56.989,44.064,56.328,37.332,50.847,32.301z"/></g><text x="0" y="86.501" fill="#000000" font-size="5px" font-weight="bold" font-family="'Helvetica Neue', Helvetica, Arial-Unicode, Arial, Sans-serif">Created by Laurent Patain</text><text x="0" y="91.501" fill="#000000" font-size="5px" font-weight="bold" font-family="'Helvetica Neue', Helvetica, Arial-Unicode, Arial, Sans-serif">from the Noun Project</text></svg>