<svg xmlns="http://www.w3.org/2000/svg" xmlns:xlink="http://www.w3.org/1999/xlink" version="1.1" x="0px" y="0px" viewBox="0 0 100 125" enable-background="new 0 0 100 100" xml:space="preserve"><path d="M93.701,66.394L33.607,6.298c-1.914-1.913-5.045-1.913-6.958,0L6.299,26.649c-1.914,1.913-1.914,5.044,0,6.957  l60.095,60.095c1.913,1.913,5.044,1.913,6.957,0l20.351-20.351C95.615,71.438,95.615,68.307,93.701,66.394z M65.458,51.173  c2.043-2.042,5.256-2.192,7.476-0.458l-7.935,7.935C63.266,56.429,63.416,53.216,65.458,51.173z M64.717,65.194  c-0.282-0.282-0.282-0.738,0-1.021c0.282-0.28,0.738-0.281,1.02,0l1.021,1.02c0.282,0.282,0.282,0.738,0.001,1.021  c-0.142,0.141-0.325,0.212-0.511,0.212c-0.184,0-0.369-0.071-0.51-0.212L64.717,65.194z M52.848,38.563  c0.177-0.176,0.364-0.333,0.556-0.48l5.578,9.661c0.011,0.017,0.024,0.029,0.035,0.046c-2.052,0.85-4.501,0.443-6.169-1.225  C50.638,44.354,50.638,40.772,52.848,38.563z M54.515,53.973c-0.141,0.14-0.325,0.211-0.51,0.211s-0.369-0.071-0.511-0.212  l-1.02-1.021c-0.281-0.282-0.281-0.738,0.001-1.021c0.281-0.28,0.738-0.28,1.02,0.001l1.02,1.021  C54.797,53.234,54.797,53.69,54.515,53.973z M40.237,33.953c-0.166-0.166-0.314-0.341-0.455-0.521l9.702-5.602  c0.825,2.042,0.41,4.468-1.246,6.123C46.029,36.163,42.446,36.163,40.237,33.953z M42.273,41.729  c-0.141,0.141-0.326,0.212-0.51,0.212s-0.369-0.071-0.51-0.211l-1.021-1.02c-0.282-0.282-0.282-0.738-0.001-1.02  c0.283-0.282,0.739-0.282,1.02,0l1.021,1.02C42.555,40.991,42.555,41.448,42.273,41.729z M40.237,25.952  c2.209-2.209,5.792-2.209,8.001,0c0.197,0.197,0.37,0.408,0.532,0.625l-9.723,5.614c-0.001,0-0.001,0.001-0.002,0.001  C38.156,30.126,38.55,27.64,40.237,25.952z M35.628,13.342c2.209,2.209,2.209,5.792,0,8.001c-0.906,0.906-2.044,1.434-3.222,1.597  c0-0.006,0.003-0.011,0.003-0.017V11.771c0-0.009-0.005-0.018-0.005-0.027C33.583,11.907,34.722,12.435,35.628,13.342z   M27.627,13.342c0.938-0.938,2.125-1.474,3.348-1.615c-0.001,0.015-0.009,0.028-0.009,0.044v11.151c0,0.013,0.007,0.022,0.007,0.035  c-1.223-0.142-2.408-0.677-3.346-1.615C25.417,19.133,25.417,15.551,27.627,13.342z M30.031,29.488  c-0.141,0.141-0.325,0.211-0.51,0.211s-0.369-0.071-0.51-0.211l-1.02-1.02c-0.282-0.282-0.282-0.739,0-1.021  c0.282-0.281,0.738-0.281,1.021,0l1.02,1.02C30.313,28.749,30.313,29.206,30.031,29.488z M21.278,27.692  c1.317,1.317,1.843,3.123,1.589,4.834c-0.048-0.026-0.092-0.058-0.146-0.073l-10.644-2.852c-0.019-0.005-0.037,0-0.056-0.003  c0.276-0.695,0.693-1.346,1.255-1.907C15.487,25.482,19.069,25.482,21.278,27.692z M13.277,35.693  c-1.287-1.287-1.819-3.039-1.606-4.714c0.012,0.004,0.021,0.013,0.033,0.016l10.643,2.852c0.051,0.014,0.102,0.018,0.152,0.021  c-0.275,0.663-0.681,1.286-1.221,1.826C19.069,37.902,15.487,37.902,13.277,35.693z M23.91,23.367  c-0.142,0.141-0.326,0.211-0.511,0.211c-0.185,0-0.369-0.071-0.51-0.211l-1.02-1.02c-0.282-0.282-0.282-0.739,0-1.021  c0.282-0.281,0.738-0.281,1.021,0l1.02,1.02C24.191,22.628,24.191,23.085,23.91,23.367z M25.888,40.302  c0.934-0.935,2.116-1.469,3.334-1.613c0,0.008-0.005,0.015-0.005,0.022v11.073c0,0.048,0.019,0.09,0.027,0.135  c-1.226-0.14-2.416-0.676-3.356-1.616C23.678,46.094,23.678,42.512,25.888,40.302z M33.889,48.303  c-0.914,0.914-2.063,1.443-3.253,1.602c0.007-0.041,0.025-0.078,0.025-0.121V38.711c0-0.002-0.001-0.005-0.001-0.008  c1.181,0.162,2.321,0.69,3.229,1.599C36.098,42.512,36.098,46.094,33.889,48.303z M36.152,35.609  c-0.141,0.141-0.325,0.211-0.51,0.211s-0.369-0.071-0.51-0.211l-1.021-1.021c-0.282-0.282-0.282-0.739,0-1.021  c0.282-0.281,0.738-0.281,1.021,0l1.021,1.021C36.434,34.871,36.434,35.328,36.152,35.609z M38.498,52.912  c2.081-2.08,5.377-2.2,7.6-0.363l-7.962,7.963C36.297,58.289,36.417,54.992,38.498,52.912z M46.499,60.913  c-1.992,1.991-5.096,2.182-7.307,0.582l7.89-7.89C48.681,55.817,48.49,58.922,46.499,60.913z M48.394,47.851  c-0.141,0.141-0.325,0.211-0.51,0.211c-0.185,0-0.369-0.071-0.51-0.211l-1.02-1.02c-0.281-0.281-0.281-0.739,0-1.021  c0.283-0.281,0.738-0.281,1.021,0l1.02,1.02C48.676,47.112,48.676,47.569,48.394,47.851z M51.108,73.523  c-2.036-2.036-2.191-5.235-0.475-7.454l7.889,7.89c0.015,0.015,0.034,0.02,0.049,0.032C56.353,75.715,53.146,75.562,51.108,73.523z   M59.576,72.987c-0.013-0.016-0.019-0.034-0.033-0.049l-7.889-7.89c2.22-1.717,5.42-1.562,7.455,0.474  C61.149,67.562,61.302,70.769,59.576,72.987z M60.636,60.093c-0.141,0.141-0.325,0.212-0.51,0.212c-0.186,0-0.369-0.071-0.511-0.212  l-1.02-1.02c-0.282-0.281-0.282-0.739,0-1.021s0.738-0.281,1.021,0l1.02,1.02C60.918,59.354,60.918,59.812,60.636,60.093z   M60.25,47.077c-0.008-0.018-0.008-0.037-0.019-0.055l-5.583-9.669c2.059-0.868,4.523-0.467,6.2,1.209  c2.21,2.209,2.21,5.792,0,8.001C60.66,46.753,60.458,46.92,60.25,47.077z M63.719,86.134c-2.209-2.21-2.209-5.792,0-8.001  c0.159-0.16,0.328-0.305,0.501-0.441l5.552,9.616c0.017,0.028,0.039,0.051,0.059,0.076C67.79,88.202,65.37,87.786,63.719,86.134z   M71.72,86.134c-0.208,0.209-0.432,0.391-0.662,0.56c-0.014-0.035-0.017-0.072-0.036-0.106l-5.557-9.624  c-0.003-0.004-0.007-0.006-0.01-0.011c2.071-0.903,4.571-0.514,6.265,1.181C73.93,80.342,73.93,83.924,71.72,86.134z M70.837,70.295  c0.283-0.281,0.738-0.281,1.021,0l1.021,1.021c0.281,0.281,0.281,0.738,0,1.021c-0.142,0.141-0.326,0.211-0.511,0.211  s-0.369-0.07-0.51-0.211l-1.021-1.021C70.556,71.033,70.556,70.576,70.837,70.295z M73.459,59.174  c-2.03,2.03-5.215,2.189-7.433,0.49l7.923-7.924C75.648,53.958,75.489,57.145,73.459,59.174z M78.999,78.457  c-0.141,0.14-0.325,0.211-0.51,0.211s-0.369-0.071-0.511-0.211l-1.02-1.021c-0.282-0.281-0.282-0.739,0-1.021s0.738-0.281,1.021,0  l1.02,1.02C79.281,77.718,79.281,78.175,78.999,78.457z M78.069,71.784c-2.036-2.036-2.191-5.235-0.475-7.454l7.929,7.929  C83.304,73.976,80.104,73.82,78.069,71.784z M86.544,71.238l-7.929-7.93c2.219-1.717,5.418-1.562,7.454,0.475  S88.261,69.019,86.544,71.238z"/><text x="0" y="115" fill="#000000" font-size="5px" font-weight="bold" font-family="'Helvetica Neue', Helvetica, Arial-Unicode, Arial, Sans-serif">Created by Nikita Kozin</text><text x="0" y="120" fill="#000000" font-size="5px" font-weight="bold" font-family="'Helvetica Neue', Helvetica, Arial-Unicode, Arial, Sans-serif">from the Noun Project</text></svg>